<svg width="173" height="63" viewBox="0 0 173 63" fill="none" xmlns="http://www.w3.org/2000/svg">
<path d="M1.10547 35.1816L1.24609 38.2754L1.84375 38.6094L1.28125 39.1191L1.31641 39.875L6.95898 39.6113C7.39844 42.8105 8.10156 45.9746 9.05078 49.0859C10.3691 53.3926 12.1973 57.2422 14.5879 60.0547L15.2734 59.4395L15.1152 58.6309L15.8535 58.9121L18.0332 56.9434C16.1172 54.6055 14.5879 51.5117 13.4453 47.6621C12.6191 44.9551 11.9863 42.1953 11.582 39.4004L25.8203 38.7676L25.627 34.0742L11.0547 34.7246C11.0371 34.373 11.002 34.0215 10.9844 33.6699L6.39648 33.9336L6.44922 34.9355L1.10547 35.1816ZM28.1758 58.7891L28.4395 57.7695L28.8965 58.7363L32.6934 59.0176C32.3594 55.2734 32.1309 51.9512 32.043 49.0332C31.9902 47.8379 31.9375 46.959 31.9023 46.3965C32.9922 45.8691 34.3809 45.5527 36.0684 45.4473C37.7559 45.3418 39.1445 45.623 40.2344 46.3086C40.8848 46.8711 41.2891 47.9785 41.4297 49.6133C41.5879 51.248 41.6055 52.9531 41.4824 54.6934C41.377 56.4336 41.2715 57.752 41.166 58.6133C42.0977 58.7539 42.8008 58.8242 43.2754 58.8418L43.75 57.7168L43.7852 58.8242L45.4902 58.8066C45.4902 58.7188 45.4902 58.6309 45.5078 58.543C45.5605 57.3828 45.5957 55.9238 45.6133 54.1484C45.6309 52.373 45.543 50.6328 45.332 48.9102C45.1387 47.1699 44.7344 45.7812 44.1367 44.7266C43.3809 43.584 42.291 42.7578 40.8496 42.248C39.4082 41.7383 37.8438 41.4746 36.1738 41.4922C34.5039 41.5098 32.957 41.7207 31.5332 42.1602C31.3926 40.5781 31.2871 39.3652 31.1992 38.5039C31.1289 37.6426 31.0762 36.8516 31.0234 36.1484C30.9707 35.4277 30.918 34.5312 30.8477 33.4238L28.5801 33.3535C28.4395 33.7051 28.334 33.8809 28.1934 34.0742C28.1406 33.793 28.123 33.4414 28.1406 33.2832C27.7715 33.2129 26.998 33.2129 26.8574 33.248C26.8047 34.0215 26.7871 35.3574 26.8223 37.2559C26.8574 39.1543 26.9277 41.2988 27.0156 43.6719L25.6094 44.3926L25.75 44.9902L26.4355 45.0254L25.9082 45.7461L26.4707 48.1543L27.1914 47.8379C27.3145 50.7383 27.4375 53.1816 27.543 55.1504C27.5781 55.9062 27.6133 56.5566 27.6309 57.0664C27.6309 57.1191 27.6309 57.1719 27.6484 57.2246C27.6484 57.8223 27.7188 58.8242 28.1758 58.7891ZM66.3379 54.6582L63.877 53.0938L63.0684 53.2871L63.3496 52.7422L62.6641 52.3027C61.6621 53.6738 60.3613 54.5176 58.7441 54.8164C57.4609 55.0801 56.1602 55.0273 54.8594 54.6758C53.5586 54.3242 52.5215 53.6738 51.7305 52.7422C50.957 51.8105 50.6934 50.5977 50.9395 49.1035C51.2383 47.7676 51.9414 46.6426 53.0312 45.7285C54.5078 44.4805 56.1953 44.0059 58.0762 44.3047C58.832 44.4277 59.377 44.6562 59.4648 44.9902C59.5176 45.4648 59.2539 46.0625 58.6738 46.8008C58.0938 47.5215 57.373 48.2598 56.4941 49.0156C55.6152 49.7715 54.7715 50.4043 53.9453 50.9141L54.543 51.7051L55.2461 51.4766L54.9824 52.2676L56.2129 53.9375C57.3203 53.3223 58.4805 52.4258 59.6758 51.2656C60.8887 50.1055 61.873 48.9102 62.6641 47.6621C63.4551 46.4141 63.8066 45.3418 63.7188 44.4453C63.4727 43.1973 62.8574 42.2656 61.8906 41.6328C60.9238 41 59.7988 40.5957 58.5156 40.4023C56.5469 40.1035 54.6133 40.2969 52.7324 41C50.8516 41.7031 49.3047 42.8809 48.1094 44.5508C47.3535 45.6406 46.8262 46.8535 46.5449 48.207C46.2285 49.9648 46.334 51.582 46.8438 53.0586C47.5293 55.0098 48.6719 56.5215 50.2891 57.5586C51.9062 58.5957 53.7168 59.1758 55.7383 59.2988C57.7598 59.4219 59.7109 59.1055 61.6094 58.332C63.5078 57.5586 65.0898 56.3281 66.3379 54.6582ZM76.041 44.9199L76.3398 46.1855L76.9551 46.2207L76.4629 46.6953L77.0254 49.1738L78.6426 49.1562V59.457H83.248V49.1035L96.748 48.9629V59.457H101.354V48.9102L102.391 48.8926L102.285 44.1992L101.354 44.2168V33.5293H100.756L100.562 34.3906L100.299 33.5293H96.748V44.3574L83.248 44.7266V33.5293H82.2109L81.9473 34.1621L81.5254 33.5293H78.6426V44.8496L76.041 44.9199ZM118.176 46.8711L118.703 52.7949C116.242 54.7988 112.463 56.7324 109.439 54.7637C108.543 54.1484 107.98 53.3574 107.787 52.4082C107.594 51.4414 107.717 50.457 108.121 49.4551C108.736 48.1543 109.58 47.1348 110.688 46.4141C113.939 44.0938 118.299 44.709 120.848 45.1133L121.551 43.4961C121.586 43.4609 121.393 43.3555 121.234 43.3027C121.111 43.25 121.023 43.2148 121.076 43.2148C121.164 43.1973 121.27 43.1797 121.393 43.1797C121.621 43.1621 121.814 43.1621 121.832 43.1094L122.307 41.9844C116.471 40.2969 108.895 41.0879 105.027 46.4316C103.674 48.2422 103.076 50.3164 103.27 52.6719C103.34 53.2871 103.498 53.8672 103.762 54.377C104.764 56.2051 106.152 57.4883 107.928 58.2266C109.703 58.9648 111.602 59.2285 113.605 59C115.609 58.7891 117.438 58.1738 119.072 57.1367L119.23 58.877L121.99 58.7012L122.236 57.8047L122.518 58.5605L123.432 58.4551C123.344 57.5059 123.221 56.2402 123.062 54.6758C122.922 53.1465 122.764 51.6348 122.605 50.1758C122.447 48.7168 122.307 47.5918 122.184 46.8184C121.885 46.6777 118.932 46.6602 118.176 46.8711ZM133.785 48.2422C133.592 48.207 133.381 48.1719 133.188 48.1191C131.904 47.8906 130.867 47.6621 130.094 47.3984C129.549 47.2051 128.934 46.9238 128.986 46.3613C129.074 45.6758 129.549 45.166 130.393 44.832C131.605 44.3926 133.1 44.3223 134.893 44.6035C136.703 44.8848 138.197 45.2715 139.375 45.7461L140.359 43.373L139.797 42.8281L140.518 43.0039L140.764 42.4062C140.043 42.0547 138.777 41.6328 137.002 41.123C135.227 40.6133 133.363 40.4023 131.412 40.4727C128.617 40.6133 126.209 41.5801 124.891 43.8828C124.486 44.6562 124.293 45.5 124.346 46.4141C124.398 47.3281 124.68 48.1367 125.172 48.8574C125.664 49.543 126.297 50.0879 127.053 50.5273C128.582 51.3711 130.234 51.7578 131.852 51.9688C132.045 52.0039 132.256 52.0391 132.449 52.0918C133.732 52.3203 134.77 52.5488 135.543 52.8125C136.088 53.0059 136.703 53.2871 136.65 53.8496C136.562 54.5352 136.088 55.0449 135.244 55.3789C134.031 55.8184 132.537 55.8887 130.727 55.6074C128.934 55.3262 127.439 54.9395 126.262 54.4648L125.277 56.8379L125.84 57.3828L125.119 57.207L124.873 57.8047C125.594 58.1562 126.859 58.5781 128.635 59.0703C130.41 59.5801 132.273 59.791 134.225 59.7383C137.02 59.5977 139.428 58.6133 140.746 56.3105C141.15 55.5547 141.326 54.7109 141.273 53.7969C141.221 52.8828 140.957 52.0742 140.465 51.3535C139.99 50.668 139.357 50.123 138.584 49.6836C137.055 48.8398 135.402 48.4531 133.785 48.2422ZM144.367 58.7891L144.631 57.7695L145.088 58.7363L148.885 59.0176C148.551 55.2734 148.322 51.9512 148.234 49.0332C148.182 47.8379 148.129 46.959 148.094 46.3965C149.184 45.8691 150.572 45.5527 152.26 45.4473C153.947 45.3418 155.336 45.623 156.426 46.3086C157.076 46.8711 157.48 47.9785 157.621 49.6133C157.779 51.248 157.797 52.9531 157.674 54.6934C157.568 56.4336 157.463 57.752 157.357 58.6133C158.289 58.7539 158.992 58.8242 159.467 58.8418L159.941 57.7168L159.977 58.8242L161.682 58.8066C161.682 58.7188 161.682 58.6309 161.699 58.543C161.752 57.3828 161.787 55.9238 161.805 54.1484C161.822 52.373 161.734 50.6328 161.523 48.9102C161.33 47.1699 160.926 45.7812 160.328 44.7266C159.572 43.584 158.482 42.7578 157.041 42.248C155.6 41.7383 154.035 41.4746 152.365 41.4922C150.695 41.5098 149.148 41.7207 147.725 42.1602C147.584 40.5781 147.479 39.3652 147.391 38.5039C147.32 37.6426 147.268 36.8516 147.215 36.1484C147.162 35.4277 147.109 34.5312 147.039 33.4238L144.771 33.3535C144.631 33.7051 144.525 33.8809 144.385 34.0742C144.332 33.793 144.314 33.4414 144.332 33.2832C143.963 33.2129 143.189 33.2129 143.049 33.248C142.996 34.0215 142.979 35.3574 143.014 37.2559C143.049 39.1543 143.119 41.2988 143.207 43.6719L141.801 44.3926L141.941 44.9902L142.627 45.0254L142.1 45.7461L142.662 48.1543L143.383 47.8379C143.506 50.7383 143.629 53.1816 143.734 55.1504C143.77 55.9062 143.805 56.5566 143.822 57.0664C143.822 57.1191 143.822 57.1719 143.84 57.2246C143.84 57.8223 143.91 58.8242 144.367 58.7891ZM164.758 59.2285V58.3145C164.775 55.0449 164.793 52.2676 164.811 50C164.846 47.7324 164.898 44.7617 164.969 41.1055L166.006 41.1582L166.34 41.6328L166.656 41.1934L169.398 41.0879C169.451 44.2344 169.451 46.8535 169.434 48.9805C169.398 51.6699 169.434 55.0449 169.539 59.0703L166.182 59.2285V58.0156L165.672 59.2109L164.758 59.2285ZM168.59 38.4688L169.645 38.5918V33.916L164.898 34.1094L165.215 38.3457L167.57 38.3984L168.15 37.4316L168.59 38.4688Z" fill="#222222"/>
<mask id="path-2-inside-1_27_28" fill="white">
<rect x="1" y="17" width="170" height="8" rx="1"/>
</mask>
<rect x="1" y="17" width="170" height="8" rx="1" fill="white" stroke="#222222" stroke-width="4" mask="url(#path-2-inside-1_27_28)"/>
<rect x="142" y="18" width="5" height="6" fill="white" stroke="#222222" stroke-width="2"/>
<mask id="path-4-inside-2_27_28" fill="white">
<rect x="1" width="170" height="8" rx="1"/>
</mask>
<rect x="1" width="170" height="8" rx="1" fill="white" stroke="#222222" stroke-width="4" mask="url(#path-4-inside-2_27_28)"/>
<rect x="142" y="1" width="5" height="6" fill="white" stroke="#222222" stroke-width="2"/>
</svg>
