<svg width="177" height="82" viewBox="0 0 177 82" fill="none" xmlns="http://www.w3.org/2000/svg">
<path d="M3.10547 54.1816L3.24609 57.2754L3.84375 57.6094L3.28125 58.1191L3.31641 58.875L8.95898 58.6113C9.39844 61.8105 10.1016 64.9746 11.0508 68.0859C12.3691 72.3926 14.1973 76.2422 16.5879 79.0547L17.2734 78.4395L17.1152 77.6309L17.8535 77.9121L20.0332 75.9434C18.1172 73.6055 16.5879 70.5117 15.4453 66.6621C14.6191 63.9551 13.9863 61.1953 13.582 58.4004L27.8203 57.7676L27.627 53.0742L13.0547 53.7246C13.0371 53.373 13.002 53.0215 12.9844 52.6699L8.39648 52.9336L8.44922 53.9355L3.10547 54.1816ZM30.1758 77.7891L30.4395 76.7695L30.8965 77.7363L34.6934 78.0176C34.3594 74.2734 34.1309 70.9512 34.043 68.0332C33.9902 66.8379 33.9375 65.959 33.9023 65.3965C34.9922 64.8691 36.3809 64.5527 38.0684 64.4473C39.7559 64.3418 41.1445 64.623 42.2344 65.3086C42.8848 65.8711 43.2891 66.9785 43.4297 68.6133C43.5879 70.248 43.6055 71.9531 43.4824 73.6934C43.377 75.4336 43.2715 76.752 43.166 77.6133C44.0977 77.7539 44.8008 77.8242 45.2754 77.8418L45.75 76.7168L45.7852 77.8242L47.4902 77.8066C47.4902 77.7188 47.4902 77.6309 47.5078 77.543C47.5605 76.3828 47.5957 74.9238 47.6133 73.1484C47.6309 71.373 47.543 69.6328 47.332 67.9102C47.1387 66.1699 46.7344 64.7812 46.1367 63.7266C45.3809 62.584 44.291 61.7578 42.8496 61.248C41.4082 60.7383 39.8438 60.4746 38.1738 60.4922C36.5039 60.5098 34.957 60.7207 33.5332 61.1602C33.3926 59.5781 33.2871 58.3652 33.1992 57.5039C33.1289 56.6426 33.0762 55.8516 33.0234 55.1484C32.9707 54.4277 32.918 53.5312 32.8477 52.4238L30.5801 52.3535C30.4395 52.7051 30.334 52.8809 30.1934 53.0742C30.1406 52.793 30.123 52.4414 30.1406 52.2832C29.7715 52.2129 28.998 52.2129 28.8574 52.248C28.8047 53.0215 28.7871 54.3574 28.8223 56.2559C28.8574 58.1543 28.9277 60.2988 29.0156 62.6719L27.6094 63.3926L27.75 63.9902L28.4355 64.0254L27.9082 64.7461L28.4707 67.1543L29.1914 66.8379C29.3145 69.7383 29.4375 72.1816 29.543 74.1504C29.5781 74.9062 29.6133 75.5566 29.6309 76.0664C29.6309 76.1191 29.6309 76.1719 29.6484 76.2246C29.6484 76.8223 29.7188 77.8242 30.1758 77.7891ZM68.3379 73.6582L65.877 72.0938L65.0684 72.2871L65.3496 71.7422L64.6641 71.3027C63.6621 72.6738 62.3613 73.5176 60.7441 73.8164C59.4609 74.0801 58.1602 74.0273 56.8594 73.6758C55.5586 73.3242 54.5215 72.6738 53.7305 71.7422C52.957 70.8105 52.6934 69.5977 52.9395 68.1035C53.2383 66.7676 53.9414 65.6426 55.0312 64.7285C56.5078 63.4805 58.1953 63.0059 60.0762 63.3047C60.832 63.4277 61.377 63.6562 61.4648 63.9902C61.5176 64.4648 61.2539 65.0625 60.6738 65.8008C60.0938 66.5215 59.373 67.2598 58.4941 68.0156C57.6152 68.7715 56.7715 69.4043 55.9453 69.9141L56.543 70.7051L57.2461 70.4766L56.9824 71.2676L58.2129 72.9375C59.3203 72.3223 60.4805 71.4258 61.6758 70.2656C62.8887 69.1055 63.873 67.9102 64.6641 66.6621C65.4551 65.4141 65.8066 64.3418 65.7188 63.4453C65.4727 62.1973 64.8574 61.2656 63.8906 60.6328C62.9238 60 61.7988 59.5957 60.5156 59.4023C58.5469 59.1035 56.6133 59.2969 54.7324 60C52.8516 60.7031 51.3047 61.8809 50.1094 63.5508C49.3535 64.6406 48.8262 65.8535 48.5449 67.207C48.2285 68.9648 48.334 70.582 48.8438 72.0586C49.5293 74.0098 50.6719 75.5215 52.2891 76.5586C53.9062 77.5957 55.7168 78.1758 57.7383 78.2988C59.7598 78.4219 61.7109 78.1055 63.6094 77.332C65.5078 76.5586 67.0898 75.3281 68.3379 73.6582ZM78.041 63.9199L78.3398 65.1855L78.9551 65.2207L78.4629 65.6953L79.0254 68.1738L80.6426 68.1562V78.457H85.248V68.1035L98.748 67.9629V78.457H103.354V67.9102L104.391 67.8926L104.285 63.1992L103.354 63.2168V52.5293H102.756L102.562 53.3906L102.299 52.5293H98.748V63.3574L85.248 63.7266V52.5293H84.2109L83.9473 53.1621L83.5254 52.5293H80.6426V63.8496L78.041 63.9199ZM120.176 65.8711L120.703 71.7949C118.242 73.7988 114.463 75.7324 111.439 73.7637C110.543 73.1484 109.98 72.3574 109.787 71.4082C109.594 70.4414 109.717 69.457 110.121 68.4551C110.736 67.1543 111.58 66.1348 112.688 65.4141C115.939 63.0938 120.299 63.709 122.848 64.1133L123.551 62.4961C123.586 62.4609 123.393 62.3555 123.234 62.3027C123.111 62.25 123.023 62.2148 123.076 62.2148C123.164 62.1973 123.27 62.1797 123.393 62.1797C123.621 62.1621 123.814 62.1621 123.832 62.1094L124.307 60.9844C118.471 59.2969 110.895 60.0879 107.027 65.4316C105.674 67.2422 105.076 69.3164 105.27 71.6719C105.34 72.2871 105.498 72.8672 105.762 73.377C106.764 75.2051 108.152 76.4883 109.928 77.2266C111.703 77.9648 113.602 78.2285 115.605 78C117.609 77.7891 119.438 77.1738 121.072 76.1367L121.23 77.877L123.99 77.7012L124.236 76.8047L124.518 77.5605L125.432 77.4551C125.344 76.5059 125.221 75.2402 125.062 73.6758C124.922 72.1465 124.764 70.6348 124.605 69.1758C124.447 67.7168 124.307 66.5918 124.184 65.8184C123.885 65.6777 120.932 65.6602 120.176 65.8711ZM135.785 67.2422C135.592 67.207 135.381 67.1719 135.188 67.1191C133.904 66.8906 132.867 66.6621 132.094 66.3984C131.549 66.2051 130.934 65.9238 130.986 65.3613C131.074 64.6758 131.549 64.166 132.393 63.832C133.605 63.3926 135.1 63.3223 136.893 63.6035C138.703 63.8848 140.197 64.2715 141.375 64.7461L142.359 62.373L141.797 61.8281L142.518 62.0039L142.764 61.4062C142.043 61.0547 140.777 60.6328 139.002 60.123C137.227 59.6133 135.363 59.4023 133.412 59.4727C130.617 59.6133 128.209 60.5801 126.891 62.8828C126.486 63.6562 126.293 64.5 126.346 65.4141C126.398 66.3281 126.68 67.1367 127.172 67.8574C127.664 68.543 128.297 69.0879 129.053 69.5273C130.582 70.3711 132.234 70.7578 133.852 70.9688C134.045 71.0039 134.256 71.0391 134.449 71.0918C135.732 71.3203 136.77 71.5488 137.543 71.8125C138.088 72.0059 138.703 72.2871 138.65 72.8496C138.562 73.5352 138.088 74.0449 137.244 74.3789C136.031 74.8184 134.537 74.8887 132.727 74.6074C130.934 74.3262 129.439 73.9395 128.262 73.4648L127.277 75.8379L127.84 76.3828L127.119 76.207L126.873 76.8047C127.594 77.1562 128.859 77.5781 130.635 78.0703C132.41 78.5801 134.273 78.791 136.225 78.7383C139.02 78.5977 141.428 77.6133 142.746 75.3105C143.15 74.5547 143.326 73.7109 143.273 72.7969C143.221 71.8828 142.957 71.0742 142.465 70.3535C141.99 69.668 141.357 69.123 140.584 68.6836C139.055 67.8398 137.402 67.4531 135.785 67.2422ZM146.367 77.7891L146.631 76.7695L147.088 77.7363L150.885 78.0176C150.551 74.2734 150.322 70.9512 150.234 68.0332C150.182 66.8379 150.129 65.959 150.094 65.3965C151.184 64.8691 152.572 64.5527 154.26 64.4473C155.947 64.3418 157.336 64.623 158.426 65.3086C159.076 65.8711 159.48 66.9785 159.621 68.6133C159.779 70.248 159.797 71.9531 159.674 73.6934C159.568 75.4336 159.463 76.752 159.357 77.6133C160.289 77.7539 160.992 77.8242 161.467 77.8418L161.941 76.7168L161.977 77.8242L163.682 77.8066C163.682 77.7188 163.682 77.6309 163.699 77.543C163.752 76.3828 163.787 74.9238 163.805 73.1484C163.822 71.373 163.734 69.6328 163.523 67.9102C163.33 66.1699 162.926 64.7812 162.328 63.7266C161.572 62.584 160.482 61.7578 159.041 61.248C157.6 60.7383 156.035 60.4746 154.365 60.4922C152.695 60.5098 151.148 60.7207 149.725 61.1602C149.584 59.5781 149.479 58.3652 149.391 57.5039C149.32 56.6426 149.268 55.8516 149.215 55.1484C149.162 54.4277 149.109 53.5312 149.039 52.4238L146.771 52.3535C146.631 52.7051 146.525 52.8809 146.385 53.0742C146.332 52.793 146.314 52.4414 146.332 52.2832C145.963 52.2129 145.189 52.2129 145.049 52.248C144.996 53.0215 144.979 54.3574 145.014 56.2559C145.049 58.1543 145.119 60.2988 145.207 62.6719L143.801 63.3926L143.941 63.9902L144.627 64.0254L144.1 64.7461L144.662 67.1543L145.383 66.8379C145.506 69.7383 145.629 72.1816 145.734 74.1504C145.77 74.9062 145.805 75.5566 145.822 76.0664C145.822 76.1191 145.822 76.1719 145.84 76.2246C145.84 76.8223 145.91 77.8242 146.367 77.7891ZM166.758 78.2285V77.3145C166.775 74.0449 166.793 71.2676 166.811 69C166.846 66.7324 166.898 63.7617 166.969 60.1055L168.006 60.1582L168.34 60.6328L168.656 60.1934L171.398 60.0879C171.451 63.2344 171.451 65.8535 171.434 67.9805C171.398 70.6699 171.434 74.0449 171.539 78.0703L168.182 78.2285V77.0156L167.672 78.2109L166.758 78.2285ZM170.59 57.4688L171.645 57.5918V52.916L166.898 53.1094L167.215 57.3457L169.57 57.3984L170.15 56.4316L170.59 57.4688Z" fill="#222222"/>
<mask id="path-2-inside-1_27_28" fill="white">
<rect x="3" y="32" width="170" height="8" rx="1"/>
</mask>
<rect x="3" y="32" width="170" height="8" rx="1" fill="white" stroke="#222222" stroke-width="4" mask="url(#path-2-inside-1_27_28)"/>
<rect x="144" y="33" width="5" height="6" fill="white" stroke="#222222" stroke-width="2"/>
<mask id="path-4-inside-2_27_28" fill="white">
<rect width="170.408" height="7.52995" rx="1" transform="matrix(0.993389 -0.114799 0.073382 0.997304 3 19.5626)"/>
</mask>
<rect width="170.408" height="7.52995" rx="1" transform="matrix(0.993389 -0.114799 0.073382 0.997304 3 19.5626)" fill="white" stroke="#222222" stroke-width="4" mask="url(#path-4-inside-2_27_28)"/>
<rect x="1.06677" y="0.882505" width="5.5402" height="5.52995" transform="matrix(0.993389 -0.114799 0.073382 0.997304 142.263 3.58725)" fill="white" stroke="#222222" stroke-width="2"/>
</svg>
